HIERARCHY
ROOT Hips
{
	OFFSET 0.000000 0.000000 0.000000
	CHANNELS 6 Xposition Yposition Zposition Zrotation Yrotation Xrotation 
	JOINT LHipJoint
	{
		OFFSET 0.000000 0.000000 0.000000
		CHANNELS 3 Zrotation Yrotation Xrotation
		JOINT LeftUpLeg
		{
			OFFSET 1.363060 -1.794630 0.839290
			CHANNELS 3 Zrotation Yrotation Xrotation
			JOINT LeftLeg
			{
				OFFSET 2.448110 -6.726130 0.000000
				CHANNELS 3 Zrotation Yrotation Xrotation
				JOINT LeftFoot
				{
					OFFSET 2.562200 -7.039590 0.000000
					CHANNELS 3 Zrotation Yrotation Xrotation
					JOINT LeftToeBase
					{
						OFFSET 0.157640 -0.433110 2.322550
						CHANNELS 3 Zrotation Yrotation Xrotation
						End Site
						{
							OFFSET 0.000000 0.000000 0.000000
						}
					}
				}
			}
		}
	}
	JOINT RHipJoint
	{
		OFFSET 0.000000 0.000000 0.000000
		CHANNELS 3 Zrotation Yrotation Xrotation
		JOINT RightUpLeg
		{
			OFFSET -1.305520 -1.794630 0.839290
			CHANNELS 3 Zrotation Yrotation Xrotation
			JOINT RightLeg
			{
				OFFSET -2.542530 -6.985550 0.000000
				CHANNELS 3 Zrotation Yrotation Xrotation
				JOINT RightFoot
				{
					OFFSET -2.568260 -7.056230 0.000000
					CHANNELS 3 Zrotation Yrotation Xrotation
					JOINT RightToeBase
					{
						OFFSET -0.164730 -0.452590 2.363150
						CHANNELS 3 Zrotation Yrotation Xrotation
						End Site
						{
							OFFSET 0.000000 0.000000 0.000000
						}
					}
				}
			}
		}
	}
	JOINT LowerBack
	{
		OFFSET 0.000000 0.000000 0.000000
		CHANNELS 3 Zrotation Yrotation Xrotation
		JOINT Spine
		{
			OFFSET 0.028270 2.035590 -0.193380
			CHANNELS 3 Zrotation Yrotation Xrotation
			JOINT Spine1
			{
				OFFSET 0.056720 2.048850 -0.042750
				CHANNELS 3 Zrotation Yrotation Xrotation
				JOINT Neck
				{
					OFFSET 0.000000 0.000000 0.000000
					CHANNELS 3 Zrotation Yrotation Xrotation
					JOINT Neck1
					{
						OFFSET -0.054170 1.746240 0.172020
						CHANNELS 3 Zrotation Yrotation Xrotation
						JOINT Head
						{
							OFFSET 0.104070 1.761360 -0.123970
							CHANNELS 3 Zrotation Yrotation Xrotation
							End Site
							{
								OFFSET 0.000000 0.000000 0.000000
							}
						}
					}
				}
				JOINT LeftShoulder
				{
					OFFSET 0.000000 0.000000 0.000000
					CHANNELS 3 Zrotation Yrotation Xrotation
					JOINT LeftArm
					{
						OFFSET 3.362410 1.200890 -0.311210
						CHANNELS 3 Zrotation Yrotation Xrotation
						JOINT LeftForeArm
						{
							OFFSET 4.983000 -0.000000 -0.000000
							CHANNELS 3 Zrotation Yrotation Xrotation
							JOINT LeftHand
							{
								OFFSET 3.483560 -0.000000 -0.000000
								CHANNELS 3 Zrotation Yrotation Xrotation
								JOINT LeftFingerBase
								{
									OFFSET 0.000000 0.000000 0.000000
									CHANNELS 3 Zrotation Yrotation Xrotation
									JOINT LeftHandIndex1
									{
										OFFSET 0.715260 -0.000000 -0.000000
										CHANNELS 3 Zrotation Yrotation Xrotation
										End Site
										{
											OFFSET 0.000000 0.000000 0.000000
										}
									}
								}
								JOINT LThumb
								{
									OFFSET 0.000000 0.000000 0.000000
									CHANNELS 3 Zrotation Yrotation Xrotation
									End Site
									{
										OFFSET 0.000000 0.000000 0.000000
									}
								}
							}
						}
					}
				}
				JOINT RightShoulder
				{
					OFFSET 0.000000 0.000000 0.000000
					CHANNELS 3 Zrotation Yrotation Xrotation
					JOINT RightArm
					{
						OFFSET -3.136600 1.374050 -0.404650
						CHANNELS 3 Zrotation Yrotation Xrotation
						JOINT RightForeArm
						{
							OFFSET -5.241900 -0.000000 -0.000000
							CHANNELS 3 Zrotation Yrotation Xrotation
							JOINT RightHand
							{
								OFFSET -3.444170 -0.000000 -0.000000
								CHANNELS 3 Zrotation Yrotation Xrotation
								JOINT RightFingerBase
								{
									OFFSET 0.000000 0.000000 0.000000
									CHANNELS 3 Zrotation Yrotation Xrotation
									JOINT RightHandIndex1
									{
										OFFSET -0.622530 -0.000000 -0.000000
										CHANNELS 3 Zrotation Yrotation Xrotation
										End Site
										{
											OFFSET 0.000000 0.000000 0.000000
										}
									}
								}
								JOINT RThumb
								{
									OFFSET 0.000000 0.000000 0.000000
									CHANNELS 3 Zrotation Yrotation Xrotation
									End Site
									{
										OFFSET 0.000000 0.000000 0.000000
									}
								}
							}
						}
					}
				}
			}
		}
	}
}
MOTION
Frames: 6
Frame Time: 0.033333
-0.022404 16.371366 -0.022404 -3.350065 -3.631535 4.010297 -2.261451 19.301868 3.774242 -15.994275 -6.519799 -15.494057 -8.527710 -10.388445 -28.424772 5.362767 20.903420 50.355628 0.000000 0.000000 0.000000 -3.638495 -22.615914 -6.208839 33.105626 3.930344 -2.456758 -1.636838 -4.369711 20.613646 -0.633986 11.442968 -28.488861 0.000000 0.000000 0.000000 2.666100 0.902685 5.654889 1.566904 0.611162 14.021617 0.427665 1.752910 -10.431362 5.430700 -0.856213 -8.943048 -1.930457 -0.149949 -1.424700 0.000000 0.000000 0.000000 0.871268 11.166284 8.666278 -69.396539 -4.197144 20.251333 -15.182830 -77.871980 0.434027 2.374530 -14.928145 0.210340 2.432307 -14.924288 0.000000 0.000000 0.000000 0.000000 0.000000 0.000000 0.000000 -5.564852 -10.434544 7.913016 67.560617 5.380404 18.777032 16.641639 76.540106 0.363522 -1.015910 12.480137 0.179070 -1.039957 12.482078 0.000000 0.000000 0.000000 0.000000 0.000000 0.000000 0.000000 
-0.015022 16.400179 0.134104 -2.993312 -3.672605 4.113608 -1.935122 19.364921 3.639425 -16.876747 -6.419577 -14.941924 -8.369652 -10.144529 -27.652518 4.709855 19.946667 48.150377 0.000000 0.000000 0.000000 -3.402947 -22.661517 -5.885138 32.611454 4.756892 -3.261011 -2.463588 -4.662761 22.525703 -0.623153 11.460312 -28.647716 0.000000 0.000000 0.000000 2.454128 0.925848 5.527476 1.405982 0.596485 14.029917 0.441818 1.716418 -10.481326 5.370643 -0.842724 -8.856519 -1.874370 -0.144723 -1.388813 0.000000 0.000000 0.000000 0.836244 11.171334 8.674777 -69.351698 -4.193371 20.304688 -15.267078 -77.812889 0.436935 2.348150 -14.915831 0.211838 2.405296 -14.912183 0.000000 0.000000 0.000000 0.000000 0.000000 0.000000 0.000000 -5.464218 -10.536672 7.896205 67.486914 5.343938 18.794538 16.703050 76.464983 0.363590 -1.005104 12.466401 0.179119 -1.028977 12.468377 0.000000 0.000000 0.000000 0.000000 0.000000 0.000000 0.000000 
-0.005386 16.430811 0.290014 -2.637968 -3.687072 4.225978 -1.638669 19.402154 3.477944 -17.727274 -6.328164 -14.418001 -8.210867 -9.876426 -26.788950 4.097597 18.948500 45.872203 0.000000 0.000000 0.000000 -3.142617 -22.643730 -5.531946 32.034763 5.566761 -4.090347 -3.221695 -4.936578 24.324242 -0.591329 11.397057 -28.687652 0.000000 0.000000 0.000000 2.245800 0.939283 5.390767 1.248775 0.572784 14.035165 0.456862 1.671807 -10.530192 5.310890 -0.829524 -8.769277 -1.819381 -0.139664 -1.352764 0.000000 0.000000 0.000000 0.800904 11.171866 8.684287 -69.307146 -4.190408 20.357522 -15.351882 -77.753352 0.439811 2.321726 -14.903455 0.213321 2.378245 -14.900015 0.000000 0.000000 0.000000 0.000000 0.000000 0.000000 0.000000 -5.364086 -10.642284 7.879210 67.412740 5.306267 18.811416 16.764386 76.390029 0.363640 -0.994387 12.452697 0.179159 -1.018089 12.454708 0.000000 0.000000 0.000000 0.000000 0.000000 0.000000 0.000000 
0.006455 16.462815 0.444924 -2.288145 -3.676225 4.344499 -1.371662 19.418743 3.293506 -18.541272 -6.246743 -13.926277 -8.054606 -9.584428 -25.839592 3.531431 17.919725 43.541664 0.000000 0.000000 0.000000 -2.865708 -22.568980 -5.156550 31.387484 6.344339 -4.930333 -3.908676 -5.195224 26.002695 -0.541580 11.264107 -28.619784 0.000000 0.000000 0.000000 2.044595 0.942965 5.247852 1.096259 0.540406 14.038226 0.472248 1.619602 -10.578074 5.251286 -0.816604 -8.681349 -1.765462 -0.134766 -1.316651 0.000000 0.000000 0.000000 0.765123 11.168244 8.694676 -69.262877 -4.188216 20.409800 -15.437165 -77.693403 0.442655 2.295281 -14.891019 0.214787 2.351177 -14.887784 0.000000 0.000000 0.000000 0.000000 0.000000 0.000000 0.000000 -5.264629 -10.751037 7.862012 67.338183 5.267603 18.827671 16.825630 76.315244 0.363672 -0.983761 12.439020 0.179188 -1.007295 12.441065 0.000000 0.000000 0.000000 0.000000 0.000000 0.000000 0.000000 
0.019936 16.495783 0.598472 -1.947038 -3.642206 4.466619 -1.133556 19.419259 3.090477 -19.315259 -6.176806 -13.470009 -7.897456 -9.270301 -24.812693 3.013873 16.870157 41.181740 0.000000 0.000000 0.000000 -2.578792 -22.444206 -4.765791 30.680627 7.077559 -5.768906 -4.519611 -5.445015 27.559957 -0.476623 11.070707 -28.455834 0.000000 0.000000 0.000000 1.853124 0.937278 5.101449 0.949098 0.499952 14.039864 0.487501 1.560505 -10.625081 5.191705 -0.803948 -8.592762 -1.712554 -0.130019 -1.280563 0.000000 0.000000 0.000000 0.728811 11.160916 8.705812 -69.218867 -4.186736 20.461497 -15.522858 -77.633078 0.445467 2.268834 -14.878523 0.216237 2.324112 -14.875493 0.000000 0.000000 0.000000 0.000000 0.000000 0.000000 0.000000 -5.165972 -10.862536 7.844607 67.263329 5.228160 18.843318 16.886771 76.240613 0.363684 -0.973225 12.425363 0.179209 -0.996593 12.427442 0.000000 0.000000 0.000000 0.000000 0.000000 0.000000 0.000000 
0.035577 16.529270 0.750922 -1.615574 -3.587686 4.589042 -0.922497 19.410085 2.872320 -20.050207 -6.116915 -13.048338 -7.748394 -8.932678 -23.711976 2.544822 15.807991 38.800432 0.000000 0.000000 0.000000 -2.288708 -22.278752 -4.364970 29.928100 7.759602 -6.595181 -5.068666 -5.686048 29.002314 -0.400915 10.829899 -28.207916 0.000000 0.000000 0.000000 1.675135 0.922076 4.953552 0.793806 0.452925 14.039313 0.511664 1.494096 -10.651540 5.143382 -0.793965 -8.515429 -1.668481 -0.126078 -1.249545 0.000000 0.000000 0.000000 0.709681 11.134666 8.716499 -69.183335 -4.196512 20.490685 -15.547180 -77.613054 0.446557 2.261545 -14.877150 0.216790 2.316668 -14.874180 0.000000 0.000000 0.000000 0.000000 0.000000 0.000000 0.000000 -5.088206 -10.954504 7.824090 67.215120 5.194284 18.860662 16.906388 76.219257 0.364030 -0.969277 12.424103 0.179385 -0.992588 12.426198 0.000000 0.000000 0.000000 0.000000 0.000000 0.000000 0.000000 
